<mxfile host="Electron" modified="2024-03-01T19:26:55.043Z" agent="Mozilla/5.0 (Windows NT 10.0; Win64; x64) AppleWebKit/537.36 (KHTML, like Gecko) draw.io/23.1.5 Chrome/120.0.6099.109 Electron/28.1.0 Safari/537.36" etag="3JutqaLqz3_UIBLNze6d" version="23.1.5" type="device">
  <diagram id="C5RBs43oDa-KdzZeNtuy" name="Page-1">
    <mxGraphModel dx="1365" dy="1492" grid="1" gridSize="10" guides="1" tooltips="1" connect="1" arrows="1" fold="1" page="1" pageScale="1" pageWidth="827" pageHeight="1169" math="0" shadow="0">
      <root>
        <mxCell id="WIyWlLk6GJQsqaUBKTNV-0" />
        <mxCell id="WIyWlLk6GJQsqaUBKTNV-1" parent="WIyWlLk6GJQsqaUBKTNV-0" />
        <mxCell id="GF2OPw2r5ZtbMO8D5Vbo-16" value="&lt;font style=&quot;font-size: 14px;&quot;&gt;Radar&lt;/font&gt;" style="swimlane;fontStyle=1;align=center;verticalAlign=top;childLayout=stackLayout;horizontal=1;startSize=26;horizontalStack=0;resizeParent=1;resizeParentMax=0;resizeLast=0;collapsible=1;marginBottom=0;whiteSpace=wrap;html=1;" parent="WIyWlLk6GJQsqaUBKTNV-1" vertex="1">
          <mxGeometry x="-310" y="375" width="400" height="110" as="geometry" />
        </mxCell>
        <mxCell id="GF2OPw2r5ZtbMO8D5Vbo-17" value="&lt;font style=&quot;font-size: 14px;&quot;&gt;- beams: List[Beam]&lt;br&gt;- periods: List[int]&lt;br&gt;&lt;/font&gt;" style="text;strokeColor=none;fillColor=none;align=left;verticalAlign=top;spacingLeft=4;spacingRight=4;overflow=hidden;rotatable=0;points=[[0,0.5],[1,0.5]];portConstraint=eastwest;whiteSpace=wrap;html=1;" parent="GF2OPw2r5ZtbMO8D5Vbo-16" vertex="1">
          <mxGeometry y="26" width="400" height="44" as="geometry" />
        </mxCell>
        <mxCell id="GF2OPw2r5ZtbMO8D5Vbo-18" value="" style="line;strokeWidth=1;fillColor=none;align=left;verticalAlign=middle;spacingTop=-1;spacingLeft=3;spacingRight=3;rotatable=0;labelPosition=right;points=[];portConstraint=eastwest;strokeColor=inherit;" parent="GF2OPw2r5ZtbMO8D5Vbo-16" vertex="1">
          <mxGeometry y="70" width="400" height="8" as="geometry" />
        </mxCell>
        <mxCell id="GF2OPw2r5ZtbMO8D5Vbo-19" value="&lt;font style=&quot;font-size: 14px;&quot;&gt;+ scan(env: Environment, duration): Dict[str, SignalResponse]&lt;/font&gt;" style="text;strokeColor=none;fillColor=none;align=left;verticalAlign=top;spacingLeft=4;spacingRight=4;overflow=hidden;rotatable=0;points=[[0,0.5],[1,0.5]];portConstraint=eastwest;whiteSpace=wrap;html=1;" parent="GF2OPw2r5ZtbMO8D5Vbo-16" vertex="1">
          <mxGeometry y="78" width="400" height="32" as="geometry" />
        </mxCell>
        <mxCell id="GF2OPw2r5ZtbMO8D5Vbo-22" value="&lt;font style=&quot;font-size: 14px;&quot;&gt;Aircraft&lt;/font&gt;" style="swimlane;fontStyle=1;align=center;verticalAlign=top;childLayout=stackLayout;horizontal=1;startSize=26;horizontalStack=0;resizeParent=1;resizeParentMax=0;resizeLast=0;collapsible=1;marginBottom=0;whiteSpace=wrap;html=1;" parent="WIyWlLk6GJQsqaUBKTNV-1" vertex="1">
          <mxGeometry x="276" y="-360" width="270" height="200" as="geometry" />
        </mxCell>
        <mxCell id="GF2OPw2r5ZtbMO8D5Vbo-23" value="&lt;font style=&quot;font-size: 14px;&quot;&gt;- start_distance: int&lt;br&gt;- speed: int&lt;br&gt;- angle: float&lt;br&gt;- amplitude: Tuple[float, float]&lt;br&gt;&lt;/font&gt;" style="text;strokeColor=none;fillColor=none;align=left;verticalAlign=top;spacingLeft=4;spacingRight=4;overflow=hidden;rotatable=0;points=[[0,0.5],[1,0.5]];portConstraint=eastwest;whiteSpace=wrap;html=1;" parent="GF2OPw2r5ZtbMO8D5Vbo-22" vertex="1">
          <mxGeometry y="26" width="270" height="74" as="geometry" />
        </mxCell>
        <mxCell id="GF2OPw2r5ZtbMO8D5Vbo-24" value="" style="line;strokeWidth=1;fillColor=none;align=left;verticalAlign=middle;spacingTop=-1;spacingLeft=3;spacingRight=3;rotatable=0;labelPosition=right;points=[];portConstraint=eastwest;strokeColor=inherit;" parent="GF2OPw2r5ZtbMO8D5Vbo-22" vertex="1">
          <mxGeometry y="100" width="270" height="8" as="geometry" />
        </mxCell>
        <mxCell id="GF2OPw2r5ZtbMO8D5Vbo-25" value="&lt;font style=&quot;font-size: 14px;&quot;&gt;+ true_distance(time_moment: int): int&lt;br&gt;+ get_angle(): float&lt;br&gt;+ get_speed(): int&lt;br&gt;+ get_first_channel_energy(): float&lt;br&gt;+ get_second_channel_energy(): float&lt;br&gt;&lt;/font&gt;" style="text;strokeColor=none;fillColor=none;align=left;verticalAlign=top;spacingLeft=4;spacingRight=4;overflow=hidden;rotatable=0;points=[[0,0.5],[1,0.5]];portConstraint=eastwest;whiteSpace=wrap;html=1;" parent="GF2OPw2r5ZtbMO8D5Vbo-22" vertex="1">
          <mxGeometry y="108" width="270" height="92" as="geometry" />
        </mxCell>
        <mxCell id="GF2OPw2r5ZtbMO8D5Vbo-26" value="&lt;b&gt;&lt;font style=&quot;font-size: 14px;&quot;&gt;SignalResponse&lt;/font&gt;&lt;/b&gt;" style="swimlane;fontStyle=0;childLayout=stackLayout;horizontal=1;startSize=26;fillColor=none;horizontalStack=0;resizeParent=1;resizeParentMax=0;resizeLast=0;collapsible=1;marginBottom=0;whiteSpace=wrap;html=1;" parent="WIyWlLk6GJQsqaUBKTNV-1" vertex="1">
          <mxGeometry x="-230" y="10" width="240" height="150" as="geometry">
            <mxRectangle x="310" y="420" width="110" height="30" as="alternateBounds" />
          </mxGeometry>
        </mxCell>
        <mxCell id="GF2OPw2r5ZtbMO8D5Vbo-27" value="&lt;font style=&quot;font-size: 14px;&quot;&gt;+ delay: float&lt;br&gt;+ true_delay: float&lt;br&gt;+ period: int&lt;br&gt;+ amplitude: float&lt;br&gt;+ speed: int&lt;br&gt;+ angle: float&lt;br&gt;&lt;/font&gt;" style="text;strokeColor=none;fillColor=none;align=left;verticalAlign=top;spacingLeft=4;spacingRight=4;overflow=hidden;rotatable=0;points=[[0,0.5],[1,0.5]];portConstraint=eastwest;whiteSpace=wrap;html=1;" parent="GF2OPw2r5ZtbMO8D5Vbo-26" vertex="1">
          <mxGeometry y="26" width="240" height="124" as="geometry" />
        </mxCell>
        <mxCell id="GF2OPw2r5ZtbMO8D5Vbo-48" value="&lt;font style=&quot;font-size: 14px;&quot;&gt;Environment&lt;/font&gt;" style="swimlane;fontStyle=1;align=center;verticalAlign=top;childLayout=stackLayout;horizontal=1;startSize=26;horizontalStack=0;resizeParent=1;resizeParentMax=0;resizeLast=0;collapsible=1;marginBottom=0;whiteSpace=wrap;html=1;" parent="WIyWlLk6GJQsqaUBKTNV-1" vertex="1">
          <mxGeometry x="189" width="450" height="170" as="geometry" />
        </mxCell>
        <mxCell id="GF2OPw2r5ZtbMO8D5Vbo-49" value="&lt;font style=&quot;font-size: 14px;&quot;&gt;- objects: List[Aircraft]&lt;br&gt;- signal_queue: DelayedSignals&lt;br&gt;&lt;/font&gt;" style="text;strokeColor=none;fillColor=none;align=left;verticalAlign=top;spacingLeft=4;spacingRight=4;overflow=hidden;rotatable=0;points=[[0,0.5],[1,0.5]];portConstraint=eastwest;whiteSpace=wrap;html=1;" parent="GF2OPw2r5ZtbMO8D5Vbo-48" vertex="1">
          <mxGeometry y="26" width="450" height="54" as="geometry" />
        </mxCell>
        <mxCell id="GF2OPw2r5ZtbMO8D5Vbo-50" value="" style="line;strokeWidth=1;fillColor=none;align=left;verticalAlign=middle;spacingTop=-1;spacingLeft=3;spacingRight=3;rotatable=0;labelPosition=right;points=[];portConstraint=eastwest;strokeColor=inherit;" parent="GF2OPw2r5ZtbMO8D5Vbo-48" vertex="1">
          <mxGeometry y="80" width="450" height="8" as="geometry" />
        </mxCell>
        <mxCell id="GF2OPw2r5ZtbMO8D5Vbo-51" value="&lt;font style=&quot;font-size: 14px;&quot;&gt;# get_delay(distance: int): float&lt;br&gt;# create_response(period: int, t: int, aircraft: Aircraft): SignalResponse&lt;br&gt;+ send_signal(period: int, beam: Beam, t: int): None&lt;br&gt;+ get_response(beam: Beam): List[SignalResponse]&lt;br&gt;&lt;/font&gt;" style="text;strokeColor=none;fillColor=none;align=left;verticalAlign=top;spacingLeft=4;spacingRight=4;overflow=hidden;rotatable=0;points=[[0,0.5],[1,0.5]];portConstraint=eastwest;whiteSpace=wrap;html=1;" parent="GF2OPw2r5ZtbMO8D5Vbo-48" vertex="1">
          <mxGeometry y="88" width="450" height="82" as="geometry" />
        </mxCell>
        <mxCell id="GF2OPw2r5ZtbMO8D5Vbo-52" value="" style="endArrow=diamondThin;endFill=1;endSize=24;html=1;rounded=0;" parent="WIyWlLk6GJQsqaUBKTNV-1" source="GF2OPw2r5ZtbMO8D5Vbo-22" target="GF2OPw2r5ZtbMO8D5Vbo-48" edge="1">
          <mxGeometry width="160" relative="1" as="geometry">
            <mxPoint x="340" y="200" as="sourcePoint" />
            <mxPoint x="500" y="200" as="targetPoint" />
          </mxGeometry>
        </mxCell>
        <mxCell id="GF2OPw2r5ZtbMO8D5Vbo-53" value="&lt;font style=&quot;font-size: 14px;&quot;&gt;&lt;b&gt;1..*&lt;/b&gt;&lt;/font&gt;" style="edgeLabel;html=1;align=center;verticalAlign=middle;resizable=0;points=[];" parent="GF2OPw2r5ZtbMO8D5Vbo-52" vertex="1" connectable="0">
          <mxGeometry x="-0.8314" y="-1" relative="1" as="geometry">
            <mxPoint x="-11" y="1" as="offset" />
          </mxGeometry>
        </mxCell>
        <mxCell id="CAc2jayOZFMYVNIlF_L3-13" value="&lt;font style=&quot;font-size: 14px;&quot;&gt;&lt;b&gt;1&lt;/b&gt;&lt;/font&gt;" style="edgeLabel;html=1;align=center;verticalAlign=middle;resizable=0;points=[];" vertex="1" connectable="0" parent="GF2OPw2r5ZtbMO8D5Vbo-52">
          <mxGeometry x="0.5031" y="-1" relative="1" as="geometry">
            <mxPoint x="-9" y="10" as="offset" />
          </mxGeometry>
        </mxCell>
        <mxCell id="GF2OPw2r5ZtbMO8D5Vbo-59" value="&lt;font style=&quot;font-size: 14px;&quot;&gt;&lt;b&gt;Use&lt;/b&gt;&lt;/font&gt;" style="endArrow=open;endSize=12;dashed=1;html=1;rounded=0;entryX=0;entryY=1.001;entryDx=0;entryDy=0;entryPerimeter=0;exitX=1;exitY=0;exitDx=0;exitDy=0;" parent="WIyWlLk6GJQsqaUBKTNV-1" source="GF2OPw2r5ZtbMO8D5Vbo-16" target="GF2OPw2r5ZtbMO8D5Vbo-51" edge="1">
          <mxGeometry width="160" relative="1" as="geometry">
            <mxPoint x="20" y="450" as="sourcePoint" />
            <mxPoint x="180" y="450" as="targetPoint" />
          </mxGeometry>
        </mxCell>
        <mxCell id="CAc2jayOZFMYVNIlF_L3-5" value="&lt;b style=&quot;border-color: var(--border-color); font-size: 14px;&quot;&gt;Beam&lt;/b&gt;" style="swimlane;fontStyle=1;align=center;verticalAlign=top;childLayout=stackLayout;horizontal=1;startSize=26;horizontalStack=0;resizeParent=1;resizeParentMax=0;resizeLast=0;collapsible=1;marginBottom=0;whiteSpace=wrap;html=1;" vertex="1" parent="WIyWlLk6GJQsqaUBKTNV-1">
          <mxGeometry x="274" y="360" width="280" height="140" as="geometry" />
        </mxCell>
        <mxCell id="CAc2jayOZFMYVNIlF_L3-6" value="&lt;font style=&quot;font-size: 14px;&quot;&gt;- id: int&lt;br style=&quot;border-color: var(--border-color);&quot;&gt;- lower_range: float&lt;br&gt;- upper_range&lt;br&gt;&lt;/font&gt;" style="text;strokeColor=none;fillColor=none;align=left;verticalAlign=top;spacingLeft=4;spacingRight=4;overflow=hidden;rotatable=0;points=[[0,0.5],[1,0.5]];portConstraint=eastwest;whiteSpace=wrap;html=1;" vertex="1" parent="CAc2jayOZFMYVNIlF_L3-5">
          <mxGeometry y="26" width="280" height="64" as="geometry" />
        </mxCell>
        <mxCell id="CAc2jayOZFMYVNIlF_L3-7" value="" style="line;strokeWidth=1;fillColor=none;align=left;verticalAlign=middle;spacingTop=-1;spacingLeft=3;spacingRight=3;rotatable=0;labelPosition=right;points=[];portConstraint=eastwest;strokeColor=inherit;" vertex="1" parent="CAc2jayOZFMYVNIlF_L3-5">
          <mxGeometry y="90" width="280" height="8" as="geometry" />
        </mxCell>
        <mxCell id="CAc2jayOZFMYVNIlF_L3-8" value="&lt;font style=&quot;font-size: 14px;&quot;&gt;+ in_range(angle: float): bool&lt;br&gt;+ get_id(): int&lt;br&gt;&lt;/font&gt;" style="text;strokeColor=none;fillColor=none;align=left;verticalAlign=top;spacingLeft=4;spacingRight=4;overflow=hidden;rotatable=0;points=[[0,0.5],[1,0.5]];portConstraint=eastwest;whiteSpace=wrap;html=1;" vertex="1" parent="CAc2jayOZFMYVNIlF_L3-5">
          <mxGeometry y="98" width="280" height="42" as="geometry" />
        </mxCell>
        <mxCell id="CAc2jayOZFMYVNIlF_L3-9" value="" style="endArrow=diamondThin;endFill=1;endSize=24;html=1;rounded=0;" edge="1" parent="WIyWlLk6GJQsqaUBKTNV-1" source="CAc2jayOZFMYVNIlF_L3-5" target="GF2OPw2r5ZtbMO8D5Vbo-16">
          <mxGeometry width="160" relative="1" as="geometry">
            <mxPoint x="-100" y="150" as="sourcePoint" />
            <mxPoint x="60" y="150" as="targetPoint" />
          </mxGeometry>
        </mxCell>
        <mxCell id="CAc2jayOZFMYVNIlF_L3-10" value="&lt;font style=&quot;font-size: 14px;&quot;&gt;&lt;b&gt;1&lt;/b&gt;&lt;/font&gt;" style="edgeLabel;html=1;align=center;verticalAlign=middle;resizable=0;points=[];" vertex="1" connectable="0" parent="CAc2jayOZFMYVNIlF_L3-9">
          <mxGeometry x="0.2795" y="-2" relative="1" as="geometry">
            <mxPoint x="-36" y="-11" as="offset" />
          </mxGeometry>
        </mxCell>
        <mxCell id="CAc2jayOZFMYVNIlF_L3-11" value="&lt;font style=&quot;font-size: 14px;&quot;&gt;&lt;b&gt;1..*&lt;/b&gt;&lt;/font&gt;" style="edgeLabel;html=1;align=center;verticalAlign=middle;resizable=0;points=[];" vertex="1" connectable="0" parent="CAc2jayOZFMYVNIlF_L3-9">
          <mxGeometry x="-0.6808" y="-1" relative="1" as="geometry">
            <mxPoint x="15" y="-10" as="offset" />
          </mxGeometry>
        </mxCell>
        <mxCell id="CAc2jayOZFMYVNIlF_L3-15" value="&lt;font style=&quot;font-size: 14px;&quot;&gt;DelayedSignals&lt;/font&gt;" style="swimlane;fontStyle=1;align=center;verticalAlign=top;childLayout=stackLayout;horizontal=1;startSize=26;horizontalStack=0;resizeParent=1;resizeParentMax=0;resizeLast=0;collapsible=1;marginBottom=0;whiteSpace=wrap;html=1;" vertex="1" parent="WIyWlLk6GJQsqaUBKTNV-1">
          <mxGeometry x="800" y="25" width="460" height="120" as="geometry" />
        </mxCell>
        <mxCell id="CAc2jayOZFMYVNIlF_L3-16" value="&lt;font style=&quot;font-size: 14px;&quot;&gt;- signals: Dict[int, List[TravelingSignal]]&lt;br&gt;&lt;/font&gt;" style="text;strokeColor=none;fillColor=none;align=left;verticalAlign=top;spacingLeft=4;spacingRight=4;overflow=hidden;rotatable=0;points=[[0,0.5],[1,0.5]];portConstraint=eastwest;whiteSpace=wrap;html=1;" vertex="1" parent="CAc2jayOZFMYVNIlF_L3-15">
          <mxGeometry y="26" width="460" height="34" as="geometry" />
        </mxCell>
        <mxCell id="CAc2jayOZFMYVNIlF_L3-17" value="" style="line;strokeWidth=1;fillColor=none;align=left;verticalAlign=middle;spacingTop=-1;spacingLeft=3;spacingRight=3;rotatable=0;labelPosition=right;points=[];portConstraint=eastwest;strokeColor=inherit;" vertex="1" parent="CAc2jayOZFMYVNIlF_L3-15">
          <mxGeometry y="60" width="460" height="8" as="geometry" />
        </mxCell>
        <mxCell id="CAc2jayOZFMYVNIlF_L3-18" value="&lt;font style=&quot;font-size: 14px;&quot;&gt;+ push_signal(response: SignalResponse, beam_id: int, time: int): None&lt;br&gt;+ pop_signal(beam_id: int): List[SignalResponse]&lt;br&gt;&lt;/font&gt;" style="text;strokeColor=none;fillColor=none;align=left;verticalAlign=top;spacingLeft=4;spacingRight=4;overflow=hidden;rotatable=0;points=[[0,0.5],[1,0.5]];portConstraint=eastwest;whiteSpace=wrap;html=1;" vertex="1" parent="CAc2jayOZFMYVNIlF_L3-15">
          <mxGeometry y="68" width="460" height="52" as="geometry" />
        </mxCell>
        <mxCell id="CAc2jayOZFMYVNIlF_L3-31" value="&lt;span style=&quot;font-size: 14px;&quot;&gt;&lt;b&gt;TravelingSignal&lt;/b&gt;&lt;/span&gt;" style="swimlane;fontStyle=0;childLayout=stackLayout;horizontal=1;startSize=26;fillColor=none;horizontalStack=0;resizeParent=1;resizeParentMax=0;resizeLast=0;collapsible=1;marginBottom=0;whiteSpace=wrap;html=1;" vertex="1" parent="WIyWlLk6GJQsqaUBKTNV-1">
          <mxGeometry x="910" y="280" width="240" height="80" as="geometry">
            <mxRectangle x="310" y="420" width="110" height="30" as="alternateBounds" />
          </mxGeometry>
        </mxCell>
        <mxCell id="CAc2jayOZFMYVNIlF_L3-32" value="&lt;font style=&quot;font-size: 14px;&quot;&gt;data: List[SignalResponse]&lt;br&gt;arrives_in: int&lt;br&gt;&lt;/font&gt;" style="text;strokeColor=none;fillColor=none;align=left;verticalAlign=top;spacingLeft=4;spacingRight=4;overflow=hidden;rotatable=0;points=[[0,0.5],[1,0.5]];portConstraint=eastwest;whiteSpace=wrap;html=1;" vertex="1" parent="CAc2jayOZFMYVNIlF_L3-31">
          <mxGeometry y="26" width="240" height="54" as="geometry" />
        </mxCell>
        <mxCell id="CAc2jayOZFMYVNIlF_L3-33" value="" style="endArrow=diamondThin;endFill=1;endSize=24;html=1;rounded=0;" edge="1" parent="WIyWlLk6GJQsqaUBKTNV-1" source="CAc2jayOZFMYVNIlF_L3-31" target="CAc2jayOZFMYVNIlF_L3-15">
          <mxGeometry width="160" relative="1" as="geometry">
            <mxPoint x="868" y="381" as="sourcePoint" />
            <mxPoint x="680" y="380" as="targetPoint" />
          </mxGeometry>
        </mxCell>
        <mxCell id="CAc2jayOZFMYVNIlF_L3-34" value="&lt;font style=&quot;font-size: 14px;&quot;&gt;&lt;b&gt;1..*&lt;/b&gt;&lt;/font&gt;" style="edgeLabel;html=1;align=center;verticalAlign=middle;resizable=0;points=[];" vertex="1" connectable="0" parent="CAc2jayOZFMYVNIlF_L3-33">
          <mxGeometry x="-0.8314" y="-1" relative="1" as="geometry">
            <mxPoint x="-14" y="-2" as="offset" />
          </mxGeometry>
        </mxCell>
        <mxCell id="CAc2jayOZFMYVNIlF_L3-35" value="&lt;font style=&quot;font-size: 14px;&quot;&gt;&lt;b&gt;1&lt;/b&gt;&lt;/font&gt;" style="edgeLabel;html=1;align=center;verticalAlign=middle;resizable=0;points=[];" vertex="1" connectable="0" parent="CAc2jayOZFMYVNIlF_L3-33">
          <mxGeometry x="0.5031" y="-1" relative="1" as="geometry">
            <mxPoint x="-11" y="2" as="offset" />
          </mxGeometry>
        </mxCell>
        <mxCell id="CAc2jayOZFMYVNIlF_L3-36" value="" style="endArrow=diamondThin;endFill=1;endSize=24;html=1;rounded=0;" edge="1" parent="WIyWlLk6GJQsqaUBKTNV-1" source="CAc2jayOZFMYVNIlF_L3-15" target="GF2OPw2r5ZtbMO8D5Vbo-48">
          <mxGeometry width="160" relative="1" as="geometry">
            <mxPoint x="350" y="250" as="sourcePoint" />
            <mxPoint x="510" y="250" as="targetPoint" />
          </mxGeometry>
        </mxCell>
        <mxCell id="CAc2jayOZFMYVNIlF_L3-37" value="&lt;font style=&quot;font-size: 14px;&quot;&gt;&lt;b&gt;1&lt;/b&gt;&lt;/font&gt;" style="edgeLabel;html=1;align=center;verticalAlign=middle;resizable=0;points=[];" vertex="1" connectable="0" parent="CAc2jayOZFMYVNIlF_L3-36">
          <mxGeometry x="0.4388" y="-1" relative="1" as="geometry">
            <mxPoint x="-15" y="-13" as="offset" />
          </mxGeometry>
        </mxCell>
        <mxCell id="CAc2jayOZFMYVNIlF_L3-41" value="&lt;font style=&quot;font-size: 14px;&quot;&gt;&lt;b&gt;1&lt;/b&gt;&lt;/font&gt;" style="edgeLabel;html=1;align=center;verticalAlign=middle;resizable=0;points=[];" vertex="1" connectable="0" parent="CAc2jayOZFMYVNIlF_L3-36">
          <mxGeometry x="-0.7248" y="-1" relative="1" as="geometry">
            <mxPoint x="12" y="-14" as="offset" />
          </mxGeometry>
        </mxCell>
        <mxCell id="CAc2jayOZFMYVNIlF_L3-39" value="&lt;font style=&quot;font-size: 14px;&quot;&gt;&lt;b&gt;Use&lt;/b&gt;&lt;/font&gt;" style="endArrow=open;endSize=12;dashed=1;html=1;rounded=0;" edge="1" parent="WIyWlLk6GJQsqaUBKTNV-1" source="GF2OPw2r5ZtbMO8D5Vbo-48" target="CAc2jayOZFMYVNIlF_L3-5">
          <mxGeometry width="160" relative="1" as="geometry">
            <mxPoint x="90" y="272" as="sourcePoint" />
            <mxPoint x="318" y="270" as="targetPoint" />
          </mxGeometry>
        </mxCell>
        <mxCell id="CAc2jayOZFMYVNIlF_L3-40" value="&lt;font style=&quot;font-size: 14px;&quot;&gt;&lt;b&gt;return&lt;/b&gt;&lt;/font&gt;" style="html=1;verticalAlign=bottom;endArrow=open;dashed=1;endSize=8;curved=0;rounded=0;" edge="1" parent="WIyWlLk6GJQsqaUBKTNV-1" source="GF2OPw2r5ZtbMO8D5Vbo-48" target="GF2OPw2r5ZtbMO8D5Vbo-26">
          <mxGeometry relative="1" as="geometry">
            <mxPoint x="300" y="-130" as="sourcePoint" />
            <mxPoint x="220" y="-130" as="targetPoint" />
          </mxGeometry>
        </mxCell>
        <mxCell id="CAc2jayOZFMYVNIlF_L3-42" value="&lt;font style=&quot;font-size: 14px;&quot;&gt;&lt;b&gt;Use&lt;/b&gt;&lt;/font&gt;" style="endArrow=open;endSize=12;dashed=1;html=1;rounded=0;" edge="1" parent="WIyWlLk6GJQsqaUBKTNV-1" source="GF2OPw2r5ZtbMO8D5Vbo-16" target="GF2OPw2r5ZtbMO8D5Vbo-26">
          <mxGeometry width="160" relative="1" as="geometry">
            <mxPoint x="-310" y="447" as="sourcePoint" />
            <mxPoint x="-151" y="230" as="targetPoint" />
          </mxGeometry>
        </mxCell>
      </root>
    </mxGraphModel>
  </diagram>
</mxfile>
